# xmcd
#
# Track frame offsets:
#	150
#	14678
#	28819
#	44889
#	56649
#	68396
#	84010
#	100574
#	113982
#	131458
#	149608
#	161563
#	184110
#	201122
#
# Disc length: 2913 seconds
#
# Revision: 3
# Processed by: cddbd v1.5.2PL0 Copyright (c) Steve Scherf et al.
# Submitted via: audiograbber 1.83.01
#
DISCID=c00b5f0e
DTITLE=Various Artist - SD 89
DYEAR=1900
DGENRE=Country
TTITLE0=Garth Brooks - Wrapped Up In You
TTITLE1=Cyndi Thompson - I Always Liked That Best
TTITLE2=George Strait - Run
TTITLE3=Garth Brooks and George Jones - Beer Run
TTITLE4=Diamond Rio - That's Just That
TTITLE5=Phil Vasser - That's When I Love You
TTITLE6=Aaron Tippin - Where The Stars and Stripes and The Eagles Fly
TTITLE7=Tracy Lawrence - Life Don't Have To Be So Hard
TTITLE8=Alabama - The Women He Love, 
TTITLE9=Confederate Railroad,  - That's What Brothers Do
TTITLE10=Darryl Worley - Sideways
TTITLE11=Pat Green - Carry On
TTITLE12=Billy Gilman - Elizabeth
TTITLE13=Clark Family Experience - To Quote Shakespeare
EXTD=MediaType: Karaoke CD+G Producer: StarDisc
EXTT0=
EXTT1=
EXTT2=
EXTT3=
EXTT4=
EXTT5=
EXTT6=
EXTT7=
EXTT8=
EXTT9=
EXTT10=
EXTT11=
EXTT12=
EXTT13=
PLAYORDER=
